PathFileType	4	(X/Y/Z)	./resultDataOpenSim/trcMotMarkerGrf/sub06/qtm-04-02.trc
DataRate	CameraRate	NumFrames	NumMarkers	Units	OrigDataRate	OrigDataStartFrame	OrigNumFrames
250.000000	250.000000	12	24	m	250.000000	1	541
Frame#	Time	L.Toe.Tip			R.Toe.Tip			L.Ankle.Lat			R.Ankle.Lat			L.Ankle.Med			R.Ankle.Med			L.Heel			R.Heel			L.Knee.Lat			R.Knee.Lat			L.Knee.Med			R.Knee.Med			L.Thigh.Upper			R.Thigh.Upper			L.ASIS			R.ASIS			V.Sacral			L.Acromium			R.Acromium			C7			L.Elbow			R.Elbow			L.Wrist.Lat			R.Wrist.Lat
		X1	Y1	Z1	X2	Y2	Z2	X3	Y3	Z3	X4	Y4	Z4	X5	Y5	Z5	X6	Y6	Z6	X7	Y7	Z7	X8	Y8	Z8	X9	Y9	Z9	X10	Y10	Z10	X11	Y11	Z11	X12	Y12	Z12	X13	Y13	Z13	X14	Y14	Z14	X15	Y15	Z15	X16	Y16	Z16	X17	Y17	Z17	X18	Y18	Z18	X19	Y19	Z19	X20	Y20	Z20	X21	Y21	Z21	X22	Y22	Z22	X23	Y23	Z23	X24	Y24	Z24

1	0	-1.6018879	0.032278454	-0.083999796	-1.0745674	0.080167664	0.14080685	-1.723145	0.073811181	-0.089943504	-1.2049081	0.077526292	0.14330131	-1.710463	0.08609307	-0.0068057023	-1.1840708	0.1042424	0.060657938	NaN	NaN	NaN	-1.2436649	0.041732207	0.068966258	-1.5750721	0.41610269	-0.11069647	-1.2621901	0.46377909	0.15141384	-1.5802433	0.41628226	0.0093550667	-1.27725	0.44002357	0.024427119	-1.4820812	0.7931945	-0.17266993	-1.4480856	0.78744824	0.17732153	-1.3967477	0.831466	-0.13495309	-1.3705195	0.83570613	0.11016954	-1.5633551	0.9164914	0.013155138	-1.4188937	1.3190007	-0.18714955	-1.4237104	1.3055736	0.17501913	-1.4933575	1.3533871	-0.0073841328	-1.4188428	0.99831415	-0.26385411	-1.5483531	1.0151098	0.23025306	-1.2086489	0.86297282	-0.24025325	-1.4408438	0.79915077	0.26678781
2	0.004	-1.6018539	0.032223863	-0.084012662	-1.05883	0.083229691	0.14121018	-1.7228371	0.074208939	-0.09003679	-1.188955	0.077947732	0.1441667	-1.7099759	0.086410566	-0.0069106582	-1.1691807	0.10497964	0.061362336	NaN	NaN	NaN	-1.2274016	0.041263718	0.0699831	-1.5723466	0.41536166	-0.11081162	-1.2568482	0.46202798	0.15077965	-1.5773557	0.41536942	0.0092133383	-1.2705928	0.43818362	0.023910211	-1.4775873	0.79176586	-0.17245483	-1.4455109	0.78506461	0.17626189	-1.3917605	0.82973333	-0.13522592	-1.36421	0.83386236	0.11002019	-1.5577518	0.91494757	0.013842386	-1.4129808	1.3172959	-0.1868908	-1.4179832	1.3036518	0.17541161	-1.4876989	1.3519426	-0.0067945693	-1.410901	0.99662801	-0.26352166	-1.5435397	1.01347	0.23024411	-1.1999586	0.86317158	-0.23904394	-1.4379569	0.79690685	0.26736569
3	0.008	-1.6017623	0.032182628	-0.08408525	-1.0433674	0.086433691	0.14159335	-1.7224589	0.074660345	-0.090139408	-1.1732451	0.078463102	0.14503518	-1.7095315	0.086725143	-0.0070059782	-1.1544601	0.1058331	0.062046626	NaN	NaN	NaN	-1.2113961	0.04085471	0.070989719	-1.5695433	0.41460652	-0.11090385	-1.2512718	0.46029137	0.15023235	-1.5743226	0.41444283	0.0090862457	-1.263942	0.43637571	0.023386612	-1.4730523	0.79031997	-0.1722028	-1.4418769	0.78280449	0.17556122	-1.386714	0.82804034	-0.1354868	-1.3578807	0.832029	0.10988617	-1.5518579	0.91339392	0.014407203	-1.4071117	1.3155959	-0.18663631	-1.4122861	1.3017447	0.17582682	-1.4820109	1.35047	-0.0062585034	-1.4029827	0.99493847	-0.26318834	-1.5387186	1.0118328	0.23025481	-1.1913194	0.86333983	-0.23782011	-1.4350317	0.79470228	0.26796925
4	0.012	-1.6015665	0.032169839	-0.084277144	-1.0283769	0.089878345	0.14194445	-1.7219858	0.075172515	-0.090260449	-1.1580038	0.079086385	0.14584317	-1.7091293	0.087049678	-0.007094012	-1.1400716	0.10683273	0.062681324	NaN	NaN	NaN	-1.1957974	0.04052199	0.071950664	-1.5666268	0.41384328	-0.11097297	-1.2451168	0.45863021	0.14987745	-1.5711128	0.41350354	0.0089859962	-1.2572967	0.43462016	0.022851945	-1.4684328	0.78886074	-0.1718594	-1.4367958	0.78072622	0.17532359	-1.3815845	0.82638137	-0.13573725	-1.3515419	0.83020851	0.10976876	-1.5455051	0.91180183	0.014743229	-1.401274	1.3138969	-0.18636739	-1.4066086	1.2998555	0.17627279	-1.4762478	1.3489583	-0.0058208588	-1.3951519	0.99324707	-0.26290291	-1.5338766	1.0102	0.23029688	-1.1827521	0.86346404	-0.23657607	-1.4320467	0.7925444	0.26861337
5	0.016	-1.6012718	0.032195084	-0.084598993	-1.0139699	0.0935764	0.14224003	-1.7214579	0.07571135	-0.090398067	-1.1433712	0.079788857	0.14652065	-1.7087218	0.087412205	-0.007186336	-1.1261813	0.10793455	0.063229497	NaN	NaN	NaN	-1.1806672	0.040254074	0.0728168	-1.5636062	0.41308897	-0.1110267	-1.2383974	0.45708944	0.1497153	-1.5677701	0.41256677	0.00891619	-1.2506618	0.43292298	0.022309885	-1.4637101	0.78739924	-0.17140937	-1.4302184	0.77888143	0.17552907	-1.3763978	0.82471834	-0.13598329	-1.3452124	0.82840656	0.1096611	-1.5388645	0.91016323	0.014929039	-1.39542	1.3121945	-0.18605316	-1.400931	1.2979813	0.17674821	-1.4703999	1.3474181	-0.0054839945	-1.3874513	0.99155973	-0.26268319	-1.5290103	1.0085768	0.23037279	-1.174267	0.86354506	-0.23531373	-1.4289983	0.79043389	0.26929668
6	0.02	-1.6009862	0.032250548	-0.084946731	-1.000116	0.097490271	0.14238821	-1.7209371	0.076248946	-0.090543017	-1.1293556	0.080552948	0.1470543	-1.7082597	0.087840201	-0.0072913838	-1.1128982	0.1090757	0.063662447	NaN	NaN	NaN	-1.1659903	0.040040652	0.073567607	-1.5604933	0.41234951	-0.1110629	-1.2315406	0.45564862	0.1496267	-1.564333	0.41165191	0.0088710112	-1.2440304	0.43128069	0.021769467	-1.4588895	0.78593168	-0.17089696	-1.4221424	0.77731927	0.17615773	-1.3711574	0.82302016	-0.13620034	-1.3388731	0.82663425	0.10956245	-1.5323363	0.90851235	0.015241861	-1.3895042	1.3104939	-0.18568319	-1.3952454	1.2961298	0.17725212	-1.4644873	1.3458694	-0.005186296	-1.3798441	0.98987462	-0.26247153	-1.5241161	1.0069696	0.23048026	-1.1658525	0.86358795	-0.2340303	-1.4258887	0.78837381	0.27001463
7	0.024	-1.6008739	0.032308	-0.085143766	-0.98672969	0.101545	0.14227258	-1.7204528	0.076796578	-0.090690336	-1.1159308	0.081360497	0.14745204	-1.7077295	0.088345777	-0.0074062925	-1.1002412	0.11020249	0.063966513	NaN	NaN	NaN	-1.1517394	0.0398727	0.074205621	-1.5572862	0.41162271	-0.11107807	-1.224865	0.45427492	0.14951441	-1.5608303	0.41076089	0.0088439233	-1.2373829	0.42969692	0.021241538	-1.4539922	0.78444729	-0.17038151	-1.4131796	0.775949	0.17703015	-1.3658233	0.82130191	-0.13633298	-1.3324994	0.8249034	0.10947781	-1.5261427	0.90689171	0.015897972	-1.383517	1.3088126	-0.18526667	-1.3895563	1.294323	0.17778465	-1.4585254	1.3443344	-0.0048379833	-1.3722739	0.98818973	-0.26219396	-1.5191884	1.0053836	0.23061616	-1.1574929	0.86359648	-0.23272271	-1.4227173	0.78636544	0.27077032
8	0.028	-1.6009896	0.032338622	-0.085116059	-0.9738427	0.10556373	0.14191257	-1.7199967	0.077394963	-0.090838564	-1.1030928	0.082172193	0.14770846	-1.7071549	0.08892288	-0.0075242006	-1.0881551	0.11127729	0.064136219	NaN	NaN	NaN	-1.1379591	0.039735565	0.074702239	-1.5539845	0.41091658	-0.11107543	-1.2183592	0.45297238	0.14936589	-1.5572881	0.40988073	0.0088328022	-1.2306937	0.42818978	0.02073828	-1.449049	0.78293766	-0.16991139	-1.4045342	0.77454365	0.17781313	-1.3603748	0.81961197	-0.13635905	-1.3260929	0.82321924	0.10940682	-1.5202024	0.90531718	0.016905261	-1.3774765	1.3071679	-0.1848067	-1.3838647	1.2925744	0.17834911	-1.4525162	1.3428298	-0.0043860471	-1.364719	0.98651628	-0.26182238	-1.5142202	1.003824	0.23077818	-1.1491965	0.86357042	-0.2314	-1.4194775	0.7844157	0.27156866
9	0.032	-1.6012061	0.032338178	-0.084974488	-0.96161025	0.10927914	0.14147991	-1.7195443	0.078076835	-0.090988044	-1.0908427	0.0829302	0.14781428	-1.706576	0.089552166	-0.0076480852	-1.0765679	0.11227044	0.064166808	NaN	NaN	NaN	-1.1247769	0.039615355	0.074996145	-1.5505931	0.41024807	-0.11105932	-1.2118727	0.45176745	0.14921449	-1.5537182	0.40901677	0.0088335359	-1.2239412	0.42678193	0.020268778	-1.4440824	0.78140502	-0.16951349	-1.3969321	0.77296486	0.17831998	-1.3548398	0.81798065	-0.13632629	-1.319662	0.82158275	0.10934535	-1.5143813	0.90378902	0.01812492	-1.3713998	1.3055683	-0.18430499	-1.3781551	1.2908749	0.17895051	-1.4464611	1.3413593	-0.0038485949	-1.3571921	0.98487403	-0.26138351	-1.5092037	1.0022955	0.23096524	-1.1409936	0.86350615	-0.23008285	-1.4161799	0.78252799	0.27240504
10	0.036	-1.6013675	0.032321649	-0.08486567	-0.95013449	0.11248789	0.14110073	-1.7190776	0.078840958	-0.091142419	-1.0791754	0.083576235	0.14776177	-1.7059994	0.090219791	-0.0077909187	-1.0654379	0.11315018	0.064054262	NaN	NaN	NaN	-1.1123119	0.039499764	0.075054807	-1.5471071	0.40961913	-0.11103584	-1.2052985	0.45066948	0.14909812	-1.5500713	0.40818566	0.0088275953	-1.2171146	0.42548458	0.019834708	-1.439072	0.77986921	-0.16916283	-1.3901817	0.77125177	0.17861356	-1.3492555	0.81640268	-0.136304	-1.3132028	0.81999781	0.10929712	-1.5086887	0.90232168	0.019331718	-1.3652916	1.3040129	-0.18377325	-1.372399	1.2892047	0.17958608	-1.4403664	1.3399177	-0.0032803101	-1.3497125	0.9832779	-0.26091416	-1.5041315	1.0008027	0.23117723	-1.1329066	0.86340148	-0.22878862	-1.4128579	0.78068946	0.27326703
11	0.04	-1.601432	0.032300467	-0.084829987	-0.93937562	0.11512682	0.14074862	-1.7186002	0.079668531	-0.0913036	-1.0680812	0.08406956	0.1475535	-1.7053572	0.090939594	-0.0079663484	-1.0547726	0.11388042	0.063799216	NaN	NaN	NaN	-1.1006083	0.039369971	0.074895806	-1.5435039	0.40900743	-0.11101456	-1.1986184	0.44965525	0.14903101	-1.5462068	0.40739227	0.008783712	-1.2102177	0.42429703	0.019437035	-1.4339537	0.77835248	-0.16878802	-1.3837483	0.7695095	0.17883526	-1.343636	0.81486177	-0.136318	-1.3067007	0.81846869	0.1092727	-1.5032196	0.90094149	0.02031586	-1.359149	1.3024974	-0.18321803	-1.3665741	1.2875538	0.18024472	-1.4342349	1.3385061	-0.0027034468	-1.3422891	0.98173068	-0.26042465	-1.4989962	0.99935039	0.23141372	-1.1249293	0.86325955	-0.22751662	-1.4095066	0.7788943	0.27415062
12	0.044	-1.6014403	0.032277247	-0.084834755	-0.92923232	0.11719234	0.14033142	-1.7181208	0.080558238	-0.091472468	-1.0575493	0.084385172	0.14720332	-1.7045486	0.091744606	-0.008187326	-1.0446168	0.11442697	0.063406438	NaN	NaN	NaN	-1.0896485	0.039196142	0.074549247	-1.5397546	0.40838971	-0.11100276	-1.1918507	0.4486911	0.14899906	-1.5420046	0.40663679	0.0086892996	-1.2032595	0.42322099	0.019088172	-1.4286757	0.77686176	-0.16833947	-1.3772624	0.76782411	0.17907746	-1.3379709	0.81335425	-0.13634194	-1.3001345	0.81699633	0.10927765	-1.4979661	0.8996464	0.021034566	-1.3529673	1.3010208	-0.18263086	-1.3606757	1.2859323	0.1809187	-1.4280612	1.3371353	-0.0020972379	-1.3349229	0.98022661	-0.25990357	-1.4937908	0.99794346	0.23167037	-1.1170399	0.86308844	-0.22625264	-1.4059989	0.77716985	0.27507333
